<svg width="313" height="425" viewBox="0 0 313 425" fill="none" xmlns="http://www.w3.org/2000/svg">
<g clip-path="url(#clip0)">
<path d="M270.57 134.286L281.567 127.974C282.048 127.698 282.4 127.244 282.548 126.711C282.696 126.177 282.628 125.606 282.358 125.122C282.222 124.885 282.04 124.676 281.822 124.509C281.605 124.342 281.357 124.219 281.092 124.148C280.828 124.077 280.551 124.058 280.28 124.094C280.008 124.13 279.746 124.218 279.509 124.355L268.515 130.663C267.516 131.236 263.568 133.198 264.139 134.194L267.726 133.521C267.863 133.758 268.045 133.966 268.262 134.132C268.479 134.299 268.726 134.421 268.991 134.492C269.255 134.563 269.53 134.581 269.801 134.546C270.072 134.511 270.334 134.422 270.57 134.286Z" fill="#F4A891"/>
<path d="M267.285 135.256L274.142 124.205C274.707 123.295 274.425 122.099 273.514 121.534L273.28 121.39C272.369 120.824 271.172 121.104 270.607 122.014L263.75 133.064C263.185 133.974 263.467 135.17 264.378 135.736L264.612 135.88C265.523 136.445 266.72 136.166 267.285 135.256Z" fill="#F4A891"/>
<path d="M268.452 139.887L281.693 132.866C282.183 132.606 282.551 132.164 282.718 131.636C282.885 131.107 282.836 130.534 282.584 130.04C282.455 129.798 282.281 129.584 282.069 129.41C281.858 129.236 281.615 129.105 281.353 129.024C281.091 128.944 280.816 128.916 280.543 128.942C280.271 128.969 280.006 129.048 279.765 129.177L266.514 136.163C266.023 136.421 265.655 136.862 265.489 137.39C265.322 137.918 265.372 138.491 265.626 138.984C265.751 139.23 265.923 139.449 266.134 139.628C266.344 139.806 266.587 139.942 266.85 140.026C267.113 140.11 267.39 140.141 267.665 140.117C267.94 140.093 268.208 140.015 268.452 139.887Z" fill="#F4A891"/>
<path d="M268.786 144.431L282.042 137.447C282.533 137.189 282.902 136.747 283.069 136.218C283.236 135.689 283.187 135.115 282.933 134.621C282.805 134.379 282.631 134.164 282.42 133.989C282.21 133.814 281.966 133.682 281.705 133.601C281.443 133.521 281.168 133.493 280.895 133.519C280.622 133.544 280.358 133.624 280.116 133.753L266.858 140.742C266.368 141.002 266 141.444 265.833 141.972C265.667 142.501 265.715 143.074 265.967 143.568C266.096 143.81 266.271 144.024 266.482 144.198C266.693 144.372 266.936 144.503 267.198 144.583C267.46 144.664 267.735 144.692 268.008 144.665C268.28 144.639 268.545 144.56 268.786 144.431Z" fill="#F4A891"/>
<path d="M276.947 125.938C276.797 126.012 274.986 126.625 273.033 127.267C269.639 128.409 266.563 130.335 264.055 132.887L259.25 137.781C259.25 137.781 265.983 146.476 266.458 146.343C274.287 144.192 282.019 137.265 282.019 137.265L276.947 125.938Z" fill="#F4A891"/>
<path d="M270.963 149.86C270.963 149.86 242.612 175.916 242.504 175.997C233.941 184.144 220.551 187.198 210.542 180.938C208.287 179.352 206.156 177.597 204.169 175.687C202.41 173.917 186.313 148.529 186.313 148.529L196.028 120.925C196.028 120.925 214.882 154.386 216.021 156.201C217.976 159.316 221.365 161.914 223.123 162.047C226.195 162.32 227.937 161.658 230.291 160.063C241.886 152.225 257.658 134.63 257.658 134.63L270.963 149.86Z" fill="#C17A47"/>
<path d="M84.8853 353.253C84.2247 354.489 75.6742 372.535 75.6742 372.535L88.9678 378.697L98.7606 355.665L84.8853 353.253Z" fill="#591239"/>
<path d="M133.425 226.321C133.332 226.463 132.975 227.344 132.377 228.797C123.66 250.361 76.2267 368.046 76.2267 368.046L93.7774 375.07L158.211 241.223L133.425 226.321Z" fill="#07113D"/>
<path d="M69.4927 383.192L104.725 399.026C105.746 399.474 106.904 399.499 107.943 399.096C108.982 398.693 109.818 397.894 110.267 396.875C110.626 396.08 110.731 395.193 110.567 394.336C110.403 393.479 109.977 392.693 109.349 392.086L94.6728 378.078L75.3979 369.983L69.4927 383.192Z" fill="#884C2E"/>
<path d="M70.3488 381.957L108.718 398.862L108.633 399.056C108.352 399.693 107.829 400.193 107.179 400.445C106.529 400.697 105.805 400.68 105.166 400.399L69.2042 384.555L70.3511 381.952L70.3488 381.957Z" fill="#07113D"/>
<path d="M91.9529 383.127L98.0874 380.449" stroke="white" stroke-width="1.67" stroke-miterlimit="10" stroke-linecap="round"/>
<path d="M94.4234 385.767L100.556 383.094" stroke="white" stroke-width="1.67" stroke-miterlimit="10" stroke-linecap="round"/>
<path d="M96.5721 388.789L103.493 385.744" stroke="white" stroke-width="1.67" stroke-miterlimit="10" stroke-linecap="round"/>
<path d="M54.632 339.655C53.9942 340.895 45.8137 358.976 45.8137 358.976L59.22 364.883L68.5343 341.854L54.632 339.655Z" fill="#591239"/>
<path d="M100.627 212.627C100.559 212.781 100.176 213.65 99.6341 215.103C91.3462 236.691 46.2774 354.508 46.2774 354.508L63.9576 361.211L125.692 227.048L100.627 212.627Z" fill="#07113D"/>
<path d="M39.5492 369.627L74.2902 386.576C74.7861 386.816 75.3243 386.955 75.874 386.987C76.4238 387.019 76.9742 386.942 77.4939 386.761C78.0135 386.579 78.4921 386.297 78.9023 385.931C79.3125 385.565 79.6462 385.121 79.8843 384.625C80.267 383.844 80.3974 382.963 80.2576 382.104C80.1178 381.245 79.7147 380.451 79.1038 379.83L64.8555 365.393L45.8487 356.689L39.5492 369.627Z" fill="#985833"/>
<path d="M40.4058 368.438L78.2231 386.544L78.1338 386.731C77.8336 387.358 77.2961 387.84 76.6397 388.07C75.9833 388.301 75.2618 388.262 74.6337 387.961L39.1843 370.988L40.4058 368.438Z" fill="#07113D"/>
<path d="M61.9723 370.327L68.173 367.874" stroke="white" stroke-width="1.67" stroke-miterlimit="10" stroke-linecap="round"/>
<path d="M64.3632 373.036L70.5617 370.588" stroke="white" stroke-width="1.67" stroke-miterlimit="10" stroke-linecap="round"/>
<path d="M66.4176 376.121L73.4182 373.324" stroke="white" stroke-width="1.67" stroke-miterlimit="10" stroke-linecap="round"/>
<path d="M161.964 235.23C160.687 239.108 158.103 242.421 154.652 244.607C152.485 245.992 150.035 246.878 147.481 247.2C144.927 247.522 142.332 247.271 139.885 246.467L112.023 237.3C111.208 237.032 110.415 236.701 109.652 236.31C107.743 235.364 106.032 234.063 104.611 232.477C104.359 232.208 104.12 231.925 103.896 231.631C102.077 229.342 100.859 226.637 100.349 223.761C99.8404 220.885 100.057 217.928 100.98 215.159L104.432 206.42L164.628 225.643L161.964 235.23Z" fill="#07113D"/>
<path d="M175.34 119.969L172.687 119.325C170.454 118.766 168.533 117.345 167.346 115.374C166.159 113.403 165.803 111.042 166.357 108.811L173.426 80.0906C173.974 77.8545 175.382 75.9255 177.346 74.7224C179.31 73.5193 181.671 73.1392 183.916 73.6648L186.569 74.3083C188.802 74.8654 190.724 76.2853 191.911 78.256C193.099 80.2266 193.455 82.5867 192.901 84.8172L185.847 113.545C185.298 115.784 183.887 117.714 181.919 118.917C179.951 120.12 177.587 120.498 175.34 119.969Z" fill="#F4A891"/>
<path d="M230.096 64.8441C229.943 65.3145 229.788 65.7775 229.616 66.2388C228.804 68.4285 227.766 70.5276 226.52 72.5023C223.951 76.5613 220.531 80.0144 216.496 82.6233C212.46 85.2323 207.904 86.935 203.144 87.6139C198.296 88.3013 193.354 87.884 188.688 86.3933C180.863 83.8982 173.24 85.358 169.276 78.8178C168 76.7193 166.966 74.4834 166.193 72.1527C165.893 71.2386 165.619 70.3181 165.404 69.3623C164.045 63.6581 165.596 50.876 167.51 44.8671C172.946 27.9337 190.628 18.3441 207.49 22.8908C207.971 23.0229 208.448 23.1602 208.925 23.315C213.932 24.9137 218.48 27.6963 222.182 31.4262C225.884 35.1562 228.631 39.723 230.188 44.7382C232.234 51.2928 232.197 58.317 230.083 64.8447L230.096 64.8441Z" fill="#4C2615"/>
<path d="M186.45 60.9008C186.256 61.5521 185.94 62.1607 185.519 62.6951C185.022 63.3655 184.397 63.9307 183.679 64.3578C183.03 64.7317 182.313 64.9739 181.569 65.0706C180.825 65.1673 180.069 65.1166 179.345 64.9214L176.13 63.9569L173.663 63.2244L175.868 55.8473L176.266 54.4841L176.594 53.4071L176.885 52.442L176.96 52.1881L182.636 53.8829C184.021 54.2908 185.195 55.2173 185.913 56.4688C186.349 57.2077 186.612 58.0354 186.682 58.8898C186.737 59.569 186.658 60.2521 186.45 60.9008Z" fill="#FFC4BC"/>
<path d="M226.765 67.3222L223.19 79.2429L222.654 81.0283C222.306 82.1916 221.877 83.3288 221.368 84.4315C219.071 89.393 215.268 93.5054 210.499 96.1869C205.731 98.8684 200.236 99.9833 194.794 99.3738C194.457 99.3475 194.114 99.2939 193.785 99.2346C192.591 99.0624 191.412 98.802 190.256 98.4554C187.002 97.4749 183.968 95.8728 181.324 93.7382C177.619 90.7229 174.816 86.7487 173.22 82.2508C171.624 77.753 171.297 72.9047 172.275 68.2368C172.338 67.9409 172.392 67.678 172.478 67.3735C172.563 67.0691 172.649 66.692 172.75 66.3517L172.794 66.1694L173.029 65.3572L173.676 63.2361L175.854 55.9329L175.886 55.8613L176.292 54.5077L176.62 53.4307L176.911 52.4656L177.017 52.2253C177.539 50.5721 178.262 48.9897 179.172 47.5138C179.757 46.497 180.407 45.5186 181.117 44.5845C181.213 44.4372 181.319 44.2959 181.432 44.1614C182.027 43.3874 182.668 42.6503 183.353 41.9541C185.915 39.3446 188.996 37.2989 192.397 35.9482C193.073 35.6779 193.768 35.4343 194.456 35.2186C200.241 33.4356 206.468 33.7093 212.08 35.9933C217.691 38.2773 222.339 42.4306 225.235 47.7473C226.869 50.8903 227.821 54.3416 228.028 57.8754C228.143 59.2497 228.112 60.6322 227.936 61.9997C227.7 63.8045 227.309 65.5853 226.765 67.3222Z" fill="#FFC7B0"/>
<path d="M178.351 56.5565L176.13 63.9568L174.628 68.9498L172.68 68.3726C172.538 68.3311 172.398 68.2818 172.262 68.225C170.713 67.6036 169.45 66.4289 168.72 64.9297C167.99 63.4305 167.844 61.7141 168.311 60.1148C168.554 59.3122 168.956 58.5669 169.494 57.9235C170.031 57.2801 170.694 56.7518 171.441 56.3702C172.803 55.6638 174.377 55.4779 175.868 55.8472C176.043 55.8711 176.215 55.9123 176.382 55.9702L178.351 56.5565Z" fill="#FFC4BC"/>
<path d="M189.597 98.2017C186.479 97.5148 183.615 95.9694 181.329 93.7404C177.625 90.7251 174.821 86.751 173.225 82.2531C171.629 77.7552 171.302 72.9069 172.28 68.239C170.731 67.6177 169.468 66.443 168.738 64.9438C168.008 63.4445 167.862 61.7281 168.329 60.1289C168.572 59.3263 168.974 58.581 169.512 57.9376C170.05 57.2942 170.712 56.7659 171.459 56.3843C172.821 55.6779 174.395 55.492 175.886 55.8613L176.293 54.5077L176.62 53.4307L176.911 52.4656L176.986 52.2117C177.508 50.5585 178.232 48.9761 179.141 47.5002C183.022 46.4128 186.581 46.8877 187.503 51.6666C187.503 51.6666 186.827 53.5613 185.931 56.4703C185.252 58.6504 184.445 61.3974 183.686 64.3423C182.145 70.3809 180.839 77.2618 181.379 81.7562C182.532 91.3574 189.597 98.2017 189.597 98.2017Z" fill="#F4A891"/>
<path d="M223.809 67.5343L215.841 65.5991C215.467 65.5 215.148 65.2581 214.951 64.9257C214.754 64.5933 214.696 64.1971 214.789 63.8225C214.881 63.443 215.119 63.1154 215.452 62.911C215.785 62.7066 216.186 62.6418 216.566 62.7309L224.535 64.6661C224.908 64.7647 225.227 65.0056 225.424 65.3369C225.622 65.6682 225.681 66.0634 225.589 66.4376C225.498 66.8185 225.26 67.1477 224.927 67.3533C224.593 67.5588 224.191 67.6239 223.809 67.5343Z" fill="#75442C"/>
<path d="M204.418 62.8262L196.45 60.891C196.077 60.7924 195.758 60.5515 195.56 60.2202C195.363 59.8889 195.304 59.4936 195.395 59.1195C195.488 58.7394 195.726 58.4111 196.06 58.2058C196.393 58.0005 196.794 57.9347 197.175 58.0228L205.144 59.9579C205.517 60.0571 205.837 60.2989 206.034 60.6314C206.231 60.9638 206.289 61.36 206.196 61.7346C206.105 62.1149 205.867 62.4434 205.534 62.648C205.201 62.8527 204.799 62.9168 204.418 62.8262Z" fill="#75442C"/>
<path d="M195.067 82.6179C195.215 84.1767 195.74 85.6506 196.596 86.9092C197.453 88.1678 198.614 89.1722 199.977 89.8336C203.122 91.5602 207.55 91.7747 210.062 89.5595L195.067 82.6179Z" fill="white"/>
<path d="M211.046 79.1751C211.03 79.2109 210.902 79.1119 210.902 79.1119C210.55 80.3978 209.184 81.1518 206.461 80.404L208.631 70.1602C210.634 74.6394 211.365 77.0197 211.046 79.1751Z" fill="#F4A891"/>
<path d="M99.0824 222.451C99.0824 222.451 123.702 230.245 123.803 229.251C123.905 228.257 128.298 218.285 128.298 218.285C128.298 218.285 148.357 223.379 147.855 224.519C147.352 225.66 145.157 235.251 145.157 235.251L160.151 238.804L166.404 223.849L103.374 203.56L99.0824 222.451Z" fill="#080B2E"/>
<path d="M153.926 220.569L124.666 211.048L165.901 91.5054L174.751 94.8424L173.435 119.973L184.744 99.1658L192.336 101.747L153.926 220.569Z" fill="white"/>
<g opacity="0.09">
<path opacity="0.09" d="M187.688 106.588C186.756 108.705 147.914 220.594 147.914 220.594L153.363 223.416L191.033 109.936L187.688 106.588Z" fill="#080B2E"/>
<path opacity="0.09" d="M166.672 97.3224L124.802 225.581L119.431 224.485L162.91 95.8361L166.672 97.3224Z" fill="#080B2E"/>
</g>
<path d="M121.301 224.448C118.429 224.113 115.582 223.591 112.777 222.885C110.972 222.443 108.937 221.883 106.756 221.196C103.371 220.117 100.055 218.835 96.824 217.358C96.617 217.251 96.4289 217.11 96.2672 216.942L123.913 138.74C124.108 138.118 124.3 137.5 124.487 136.91C128.313 124.783 131.6 118.39 135.841 108.362C136.441 106.916 137.08 105.396 137.727 103.776C138.092 102.855 138.586 101.992 139.194 101.21C142.259 97.2533 147.789 95.9891 153.369 95.6936C156.561 95.5718 159.757 95.6163 162.945 95.827C164.269 95.891 163.418 95.9619 164.716 96.3201L121.301 224.448Z" fill="#D5844A"/>
<path d="M164.577 238.018L159.745 236.408L148.649 232.741C148.649 232.741 189.466 106.455 190.375 107.35C192.095 109.075 193.582 111.017 194.797 113.128C197.853 118.239 199.457 124.085 199.435 130.035C199.411 131.828 199.189 133.612 198.773 135.356C198.765 135.424 198.752 135.492 198.733 135.558C196.049 146.675 164.577 238.018 164.577 238.018Z" fill="#D4844A"/>
<path d="M172.498 128.195C172.398 128.478 172.217 128.725 171.977 128.905C171.737 129.086 171.449 129.191 171.15 129.209C170.85 129.227 170.551 129.156 170.291 129.005C170.031 128.854 169.821 128.63 169.688 128.361C169.555 128.092 169.504 127.79 169.542 127.492C169.579 127.194 169.704 126.914 169.9 126.687C170.097 126.46 170.356 126.296 170.645 126.216C170.934 126.135 171.241 126.141 171.527 126.234C171.72 126.298 171.899 126.4 172.052 126.534C172.206 126.667 172.332 126.83 172.422 127.012C172.513 127.195 172.566 127.393 172.579 127.596C172.592 127.799 172.564 128.003 172.498 128.195Z" fill="#9995A7"/>
<path d="M167.493 142.93C167.394 143.215 167.212 143.464 166.971 143.646C166.731 143.828 166.442 143.935 166.14 143.953C165.839 143.972 165.538 143.901 165.277 143.749C165.016 143.598 164.805 143.373 164.671 143.102C164.537 142.832 164.485 142.528 164.524 142.229C164.562 141.929 164.688 141.648 164.886 141.42C165.083 141.193 165.344 141.028 165.635 140.948C165.926 140.868 166.235 140.875 166.522 140.969C166.715 141.034 166.894 141.135 167.047 141.269C167.201 141.403 167.327 141.565 167.417 141.748C167.507 141.93 167.56 142.128 167.573 142.331C167.587 142.534 167.559 142.738 167.493 142.93Z" fill="#9995A7"/>
<path d="M162.495 157.662C162.395 157.947 162.214 158.196 161.973 158.378C161.733 158.56 161.444 158.667 161.142 158.685C160.841 158.704 160.54 158.633 160.279 158.481C160.017 158.33 159.806 158.105 159.672 157.834C159.538 157.564 159.487 157.26 159.526 156.961C159.564 156.661 159.69 156.38 159.887 156.152C160.085 155.925 160.346 155.76 160.637 155.68C160.928 155.6 161.236 155.607 161.523 155.701C161.912 155.834 162.232 156.114 162.415 156.482C162.597 156.849 162.625 157.274 162.495 157.662Z" fill="#9995A7"/>
<path d="M157.484 172.395C157.385 172.68 157.203 172.929 156.963 173.111C156.722 173.293 156.433 173.4 156.131 173.419C155.83 173.437 155.53 173.366 155.268 173.215C155.007 173.063 154.796 172.838 154.662 172.568C154.528 172.297 154.477 171.993 154.515 171.694C154.553 171.395 154.679 171.114 154.877 170.886C155.074 170.658 155.335 170.494 155.626 170.413C155.917 170.333 156.226 170.341 156.513 170.435C156.706 170.499 156.885 170.601 157.038 170.734C157.192 170.868 157.318 171.031 157.408 171.213C157.498 171.395 157.552 171.594 157.565 171.797C157.578 172 157.55 172.203 157.484 172.395Z" fill="#9995A7"/>
<path d="M152.475 187.123C152.376 187.406 152.194 187.653 151.954 187.834C151.715 188.014 151.427 188.12 151.127 188.137C150.827 188.155 150.528 188.084 150.268 187.933C150.008 187.782 149.799 187.558 149.665 187.289C149.532 187.02 149.481 186.718 149.519 186.42C149.557 186.123 149.681 185.843 149.878 185.616C150.074 185.389 150.333 185.225 150.622 185.144C150.911 185.063 151.218 185.07 151.504 185.162C151.697 185.227 151.875 185.329 152.028 185.463C152.182 185.597 152.307 185.759 152.397 185.942C152.488 186.124 152.541 186.322 152.554 186.525C152.568 186.727 152.541 186.931 152.475 187.123Z" fill="#9995A7"/>
<path d="M175.62 53.6312L174.294 59.7646C174.226 60.0706 174.228 60.3881 174.301 60.6933C174.373 60.9985 174.514 61.2834 174.712 61.5266C174.911 61.7698 175.162 61.965 175.446 62.0974C175.731 62.2298 176.042 62.2961 176.356 62.2912C176.676 62.2843 176.991 62.2036 177.275 62.0554C177.558 61.9072 177.804 61.6954 177.992 61.4367C179.72 59.0835 184.776 52.358 188.461 49.1575C192.974 45.2464 198.682 47.4803 198.682 47.4803L205.333 52.5723C205.808 52.9306 206.377 53.1439 206.971 53.1863C207.565 53.2288 208.158 53.0986 208.679 52.8116C209.2 52.5245 209.627 52.0929 209.907 51.5687C210.188 51.0446 210.31 50.4504 210.26 49.8578L210.209 49.1694L218.811 55.622C220.66 57.0475 222.876 55.5444 223.145 53.2138C223.158 53.1831 223.163 53.1729 223.191 53.2341C223.514 53.529 228.606 55.9251 233.222 58.0688C233.805 58.3299 234.454 58.4046 235.08 58.2827C235.707 58.1608 236.28 57.8482 236.722 57.3878C237.163 56.9275 237.451 56.3418 237.546 55.7112C237.64 55.0806 237.538 54.4359 237.251 53.8655C233.595 46.5446 227.364 35.9583 220.022 31.325C208.241 23.8811 185.388 32.0845 182.671 35.1009C179.953 38.1174 175.62 53.6312 175.62 53.6312Z" fill="#4C2615"/>
<path d="M199.229 70.2309C198.95 70.1635 198.708 69.992 198.552 69.7517C198.396 69.5115 198.339 69.2208 198.391 68.9396L198.93 66.4232C198.996 66.145 199.165 65.9024 199.404 65.7452C199.642 65.5881 199.932 65.5283 200.214 65.5781C200.354 65.6077 200.487 65.6646 200.605 65.7456C200.723 65.8266 200.824 65.93 200.902 66.0501C200.98 66.1701 201.033 66.3042 201.059 66.4449C201.085 66.5855 201.082 66.7298 201.052 66.8695L200.52 69.383C200.455 69.6632 200.285 69.9077 200.045 70.0656C199.804 70.2236 199.512 70.2828 199.229 70.2309Z" fill="#07113D"/>
<path d="M217.864 74.2951C217.585 74.2276 217.343 74.0561 217.188 73.8159C217.032 73.5757 216.974 73.285 217.026 73.0037L217.561 70.4851C217.626 70.2062 217.796 69.9633 218.036 69.8065C218.276 69.6497 218.567 69.5909 218.849 69.6422C219.131 69.7031 219.377 69.8731 219.533 70.1149C219.689 70.3566 219.743 70.6503 219.682 70.9313L219.15 73.4449C219.086 73.7245 218.917 73.9687 218.677 74.1269C218.438 74.2852 218.147 74.3454 217.864 74.2951Z" fill="#07113D"/>
<path d="M103.014 219.359C99.9459 218.38 100.313 218.963 96.8082 217.351C96.6011 217.244 96.4131 217.103 96.2514 216.935L124.724 135.898C124.919 135.275 130.141 131.933 130.353 131.355C128.989 140.922 105.198 220.052 103.014 219.359Z" fill="#B16E3D"/>
<path d="M103.592 208.786L114.595 220.467C114.785 220.672 115.015 220.837 115.27 220.954C115.524 221.07 115.8 221.135 116.08 221.145C116.359 221.154 116.638 221.109 116.9 221.011C117.163 220.913 117.403 220.764 117.607 220.573C118.013 220.184 118.251 219.652 118.27 219.09C118.289 218.528 118.088 217.98 117.709 217.564L106.71 205.873C106.52 205.668 106.29 205.502 106.036 205.386C105.781 205.27 105.506 205.205 105.226 205.195C104.946 205.185 104.667 205.231 104.405 205.329C104.143 205.427 103.903 205.576 103.698 205.767C103.29 206.156 103.05 206.69 103.03 207.254C103.01 207.818 103.212 208.368 103.592 208.786Z" fill="#FFC7B0"/>
<path d="M142.223 247.992L90.0264 263.762L79.1513 226.702L131.343 210.93L142.223 247.992Z" fill="#85807E"/>
<path d="M140.517 252.114L86.7405 260.794L80.8574 222.58L134.632 213.906L140.517 252.114Z" fill="white"/>
<g opacity="0.51">
<path opacity="0.51" d="M101.857 229.677C101.993 229.547 112.902 225.211 112.574 222.929C111.979 218.952 110.886 215.065 109.322 211.359L106.379 204.5C106.379 204.5 96.9447 208.795 96.446 208.996C89.5087 211.857 96.913 224.598 96.913 224.598C96.913 224.598 98.8231 232.633 101.857 229.677Z" fill="#85807E"/>
<path opacity="0.51" d="M106.662 220.062L112.982 236.08C113.441 237.247 114.964 237.637 116.353 236.955C117.747 236.262 118.513 234.731 118.05 233.562L111.734 217.546C111.271 216.377 109.748 215.987 108.358 216.669C106.964 217.362 106.198 218.893 106.662 220.062Z" fill="#85807E"/>
<path opacity="0.51" d="M103.026 225.996L108.216 238.805C108.323 239.078 108.487 239.326 108.696 239.531C108.906 239.737 109.157 239.896 109.432 239.998C109.707 240.099 110.001 240.142 110.294 240.122C110.587 240.102 110.872 240.02 111.131 239.882C111.674 239.589 112.093 239.11 112.311 238.533C112.529 237.956 112.532 237.32 112.319 236.741L107.152 223.906C107.046 223.633 106.882 223.385 106.672 223.18C106.463 222.974 106.212 222.815 105.937 222.713C105.661 222.612 105.367 222.569 105.074 222.589C104.782 222.609 104.496 222.691 104.238 222.829C103.684 223.118 103.254 223.6 103.031 224.183C102.808 224.766 102.806 225.411 103.026 225.996Z" fill="#85807E"/>
<path opacity="0.51" d="M95.6818 222.296L101.843 237.469C101.95 237.742 102.114 237.99 102.323 238.195C102.533 238.401 102.784 238.56 103.059 238.661C103.334 238.763 103.628 238.805 103.921 238.785C104.214 238.765 104.499 238.683 104.758 238.545C105.31 238.254 105.736 237.772 105.957 237.189C106.178 236.606 106.178 235.963 105.957 235.379L99.8213 220.218C99.714 219.945 99.5499 219.697 99.34 219.492C99.13 219.287 98.8789 219.128 98.6033 219.027C98.3276 218.926 98.0337 218.884 97.7408 218.905C97.448 218.925 97.163 219.008 96.9045 219.146C96.3505 219.431 95.9203 219.909 95.6951 220.489C95.4699 221.069 95.4652 221.712 95.6818 222.296Z" fill="#85807E"/>
</g>
<path d="M102.481 227.149C102.606 227.032 112.935 223.388 112.561 221.306C111.873 217.652 110.723 214.1 109.138 210.735L106.143 204.426C106.143 204.426 97.2251 208.075 96.7643 208.233C90.1958 210.646 97.643 222.427 97.643 222.427C97.643 222.427 99.6487 229.76 102.481 227.149Z" fill="#FFC7B0"/>
<path d="M106.69 218.597L113.284 233.258C113.4 233.512 113.565 233.741 113.77 233.932C113.975 234.122 114.215 234.271 114.477 234.369C114.739 234.466 115.017 234.512 115.297 234.502C115.576 234.492 115.851 234.427 116.105 234.311C116.621 234.073 117.021 233.642 117.221 233.111C117.421 232.579 117.403 231.991 117.173 231.472L110.58 216.805C110.464 216.551 110.299 216.322 110.095 216.132C109.89 215.941 109.65 215.793 109.388 215.695C109.126 215.597 108.847 215.552 108.568 215.561C108.288 215.571 108.014 215.636 107.76 215.752C107.243 215.991 106.842 216.423 106.642 216.955C106.442 217.487 106.459 218.077 106.69 218.597Z" fill="#FFC7B0"/>
<path d="M103.506 223.838L108.808 235.628C108.924 235.882 109.089 236.111 109.294 236.301C109.498 236.492 109.739 236.641 110.001 236.738C110.263 236.836 110.541 236.882 110.821 236.872C111.1 236.862 111.375 236.797 111.629 236.681C112.145 236.442 112.547 236.01 112.747 235.478C112.947 234.946 112.93 234.356 112.699 233.836L107.394 222.052C107.279 221.797 107.115 221.567 106.91 221.375C106.706 221.184 106.465 221.035 106.203 220.937C105.941 220.839 105.661 220.794 105.382 220.804C105.102 220.815 104.827 220.881 104.573 220.998C104.059 221.238 103.659 221.669 103.459 222.2C103.26 222.731 103.276 223.319 103.506 223.838Z" fill="#FFC7B0"/>
<path d="M96.3693 220.279L102.653 234.216C102.767 234.471 102.932 234.701 103.136 234.892C103.34 235.084 103.58 235.233 103.842 235.331C104.104 235.43 104.383 235.475 104.662 235.466C104.942 235.456 105.217 235.391 105.471 235.275C105.986 235.034 106.386 234.601 106.585 234.069C106.784 233.537 106.766 232.948 106.536 232.428L100.253 218.49C100.138 218.235 99.9733 218.005 99.7689 217.813C99.5645 217.622 99.3241 217.473 99.0617 217.375C98.7993 217.277 98.5201 217.232 98.2403 217.243C97.9605 217.253 97.6857 217.319 97.4317 217.437C96.9166 217.676 96.5164 218.108 96.3177 218.64C96.1189 219.171 96.1375 219.76 96.3693 220.279Z" fill="#FFC7B0"/>
<path d="M109.568 205.941L108.718 204.052L106.822 199.87L93.4036 206.044L90.5936 207.34L90.9593 208.148L91.7508 209.92L93.3315 213.413L94.0814 213.072L103.533 208.711L107.36 206.953L107.64 206.832L109.568 205.941Z" fill="#9995A7"/>
<path d="M148.027 111.667L144.766 100.172L144.048 98.6343C143.828 98.745 140.785 100.25 136.263 102.893C132.405 105.15 127.457 108.247 122.251 112.023C106.31 123.602 95.9239 135.679 91.3542 147.925C81.8589 173.379 89.1939 207.047 89.5097 208.469L90.9687 208.128L93.6938 207.497L104.746 204.946L106.3 204.599L108.762 204.022L110.434 203.642C110.373 203.364 104.202 174.746 111.428 155.359C116.941 140.584 130.297 128.527 141.776 122.134C143.364 121.264 146.84 112.249 148.027 111.667Z" fill="#D4844A"/>
<path d="M274.897 137.441L275.012 137.72C275.456 138.8 276.693 139.316 277.773 138.874L282.255 137.037C283.335 136.594 283.851 135.36 283.406 134.28L283.291 134.001C282.847 132.921 281.61 132.405 280.53 132.847L276.048 134.684C274.968 135.127 274.452 136.361 274.897 137.441Z" fill="#FFC7B0"/>
<path d="M274.192 132.919L274.283 133.213C274.627 134.329 275.812 134.955 276.928 134.612L281.559 133.19C282.675 132.847 283.301 131.664 282.956 130.549L282.865 130.255C282.521 129.14 281.336 128.513 280.22 128.856L275.589 130.279C274.473 130.622 273.847 131.804 274.192 132.919Z" fill="#FFC7B0"/>
<path d="M278.588 127.766C279.257 128.898 280.234 128.583 281.313 127.953L285.316 125.808C286.39 125.176 287.098 124.291 286.434 123.162C286.133 122.623 285.632 122.224 285.039 122.053C284.446 121.883 283.809 121.953 283.269 122.25L279.326 124.562C278.804 124.889 278.433 125.41 278.295 126.011C278.156 126.611 278.261 127.242 278.588 127.766Z" fill="#F4A891"/>
</g>
<defs>
<clipPath id="clip0">
<rect width="171" height="388" fill="white" transform="translate(156.435) rotate(23.7773)"/>
</clipPath>
</defs>
</svg>
