<svg id="Слой_2" data-name="Слой 2" xmlns="http://www.w3.org/2000/svg" viewBox="0 0 852.51 365.31"><defs><style>.cls-1{fill:#fff;}.cls-2{fill:#fc0;}.cls-3{fill:none;stroke:#fff;stroke-miterlimit:10;}</style></defs><title>Безымянный-1</title><rect class="cls-1" x="235.5" y="117.31" width="378" height="206" rx="103"/><rect x="281" y="142.11" width="287" height="156.41" rx="78.2"/><path class="cls-2" d="M801.32,555.36l2.44-14.5a17.13,17.13,0,0,1-9.61,3.11,12.61,12.61,0,0,1-7.57-2.14c-2-1.43-2.94-3.71-2.94-6.86a42.45,42.45,0,0,1,.7-5.94l2.29-13.66h11.58L795.92,529a29.27,29.27,0,0,0-.44,3.67c0,1.56,1.21,2.34,3.64,2.34a17.32,17.32,0,0,0,5.8-1.11L808,515.37h11.62l-6.71,40Z" transform="translate(-535.5 -319.69)"/><path class="cls-2" d="M823.51,555.36l3.78-22.58h-8.11l1.2-7.21h27.39l-1.23,7.21h-7.75L835,555.36Z" transform="translate(-535.5 -319.69)"/><path class="cls-2" d="M861.1,556.07a15.2,15.2,0,0,1-10.38-3.68,12.62,12.62,0,0,1-4.21-10,17.11,17.11,0,0,1,4.88-12.57,16.62,16.62,0,0,1,12.32-4.92q6.79,0,10.79,3.85a12.67,12.67,0,0,1,4,9.51q0,8.4-5.14,13.12A17.49,17.49,0,0,1,861.1,556.07Zm.47-7.21q3.07,0,4.17-4.57a33.47,33.47,0,0,0,1.1-7.65q0-4.68-3.4-4.68c-2,0-3.4,1.55-4.17,4.67a33.28,33.28,0,0,0-1.16,7.63C858.11,547.33,859.27,548.86,861.57,548.86Z" transform="translate(-535.5 -319.69)"/><path class="cls-2" d="M911,555.36l1.89-11.22H909l-6.21,11.22h-9.9L901.12,542q-3.66-1.9-3.66-6.57a9.65,9.65,0,0,1,2.77-6.95q2.76-2.9,7.92-2.89h19.28l-5,29.79Zm3.35-17.72,1-5.68h-4.12q-3.18,0-3.18,3.66c0,1.35.74,2,2.22,2Z" transform="translate(-535.5 -319.69)"/><path class="cls-2" d="M974.8,525.69l-14.12,30q-3.12,6.59-6.38,8.38a16,16,0,0,1-7.77,1.79,22.77,22.77,0,0,1-4.69-.5l0-7.93c2.49.25,4.34.38,5.56.38,3,0,4.56-.82,4.56-2.44a8.29,8.29,0,0,0-.36-1.93l-7.15-27.74h11.78l2.53,11.89a34.18,34.18,0,0,1,.73,3.81c.2-.37.42-.87.68-1.49a14.26,14.26,0,0,1,.73-1.7l5.87-12.51Z" transform="translate(-535.5 -319.69)"/><path class="cls-2" d="M973.51,555.36l5-29.79h16.27l.87,23.35,8.73-23.35h15.2l-5,29.79h-10.42l3.84-23h-.53l-8.68,23H987.5l-1-23H986l-3.84,23Z" transform="translate(-535.5 -319.69)"/><path class="cls-2" d="M1053.29,542.56H1032.9a16.09,16.09,0,0,0-.15,1.8,3.83,3.83,0,0,0,1.25,3,4.59,4.59,0,0,0,3.15,1.09q3.6,0,5.09-3.75l10,1.61a15.72,15.72,0,0,1-6.26,7,17.82,17.82,0,0,1-9.59,2.69,15.28,15.28,0,0,1-10.74-3.77q-4.12-3.76-4.12-10.27a16.83,16.83,0,0,1,4.87-12.11q4.86-5.05,12.71-5,6.64,0,10.59,3.92t3.94,10.41A21,21,0,0,1,1053.29,542.56Zm-10.66-5.68a10.57,10.57,0,0,0,.14-1.41,4.17,4.17,0,0,0-1-2.75,3.38,3.38,0,0,0-2.74-1.17,4.87,4.87,0,0,0-3.4,1.42,6.35,6.35,0,0,0-1.87,3.91Z" transform="translate(-535.5 -319.69)"/><path class="cls-2" d="M1074.09,543.79h-4.88l-1.94,11.57h-11.49l5-29.79h11.49l-1.86,11.16h4.4a16,16,0,0,1,5.92-8.79,16.27,16.27,0,0,1,10-3.25q6.73,0,10.84,3.79t4.1,10.39a17,17,0,0,1-17.43,17.37,14.28,14.28,0,0,1-9.81-3.47A12.49,12.49,0,0,1,1074.09,543.79Zm14.62,5.25c2,0,3.41-1.54,4.14-4.6a34.25,34.25,0,0,0,1.1-7.83q0-4.86-3.42-4.86c-2,0-3.35,1.58-4.14,4.75a33.85,33.85,0,0,0-1.17,7.76C1085.22,547.44,1086.38,549,1088.71,549Z" transform="translate(-535.5 -319.69)"/><path class="cls-2" d="M1127.52,541.59h-9.87q0-5.69,5.9-10.54c2.69-2.2,4.26-3.78,4.73-4.76a6.42,6.42,0,0,0,.7-2.73,3.75,3.75,0,0,0-1-2.66,3.37,3.37,0,0,0-2.57-1.08q-4.2,0-5.15,6.44l-10-2.16q2-6.92,6.35-10a16.63,16.63,0,0,1,9.84-3.07,17.09,17.09,0,0,1,10.76,3.28,11,11,0,0,1,4.25,9.25,13.1,13.1,0,0,1-1.62,6.16q-1.6,3.07-6.85,6.13a29.66,29.66,0,0,0-3.57,2.42A5.14,5.14,0,0,0,1127.52,541.59Zm.89,2.73-1.84,11H1114.7l1.84-11Z" transform="translate(-535.5 -319.69)"/><polyline class="cls-3" points="265.5 148.31 219.5 130.31 0 128.81"/><circle class="cls-3" cx="265.5" cy="148.31" r="7.5"/><circle class="cls-3" cx="265.5" cy="148.31" r="4.28"/><path class="cls-1" d="M547.25,401.8,550,385.14h4.73L552.6,398h4.06l2.16-12.83h4.7L561.39,398h1.94l-1.24,7.35h-3l.17-3.52Z" transform="translate(-535.5 -319.69)"/><path class="cls-1" d="M563.64,401.8l2.08-12.41h7.13q3.95,0,3.94,2.86t-3.39,3.1a5.16,5.16,0,0,1,2.44,1,2.24,2.24,0,0,1,.69,1.72,3.31,3.31,0,0,1-1.29,2.76,6.39,6.39,0,0,1-3.94,1Zm5.08-2.69h1.63a1.54,1.54,0,0,0,1.74-1.74.89.89,0,0,0-.37-.85,2.53,2.53,0,0,0-1.24-.22H569.2Zm.79-4.69h1.62a1.23,1.23,0,0,0,1.41-1.37,1.12,1.12,0,0,0-.25-.82,1.35,1.35,0,0,0-.92-.24h-1.45Z" transform="translate(-535.5 -319.69)"/><path class="cls-1" d="M591.29,396.47H582.8a5.28,5.28,0,0,0-.07.75,1.6,1.6,0,0,0,.52,1.26,2,2,0,0,0,1.32.46,2.18,2.18,0,0,0,2.12-1.57l4.15.67a6.6,6.6,0,0,1-2.61,2.94,7.46,7.46,0,0,1-4,1.12,6.42,6.42,0,0,1-4.48-1.57,5.52,5.52,0,0,1-1.71-4.28,7,7,0,0,1,7.32-7.15,6,6,0,0,1,4.41,1.63,5.83,5.83,0,0,1,1.65,4.34A8.58,8.58,0,0,1,591.29,396.47Zm-4.44-2.37a4,4,0,0,0,.06-.58,1.74,1.74,0,0,0-.41-1.15,1.39,1.39,0,0,0-1.14-.49,2.07,2.07,0,0,0-1.42.59,2.7,2.7,0,0,0-.78,1.63Z" transform="translate(-535.5 -319.69)"/><path class="cls-1" d="M594,401.8l1.58-9.41h-3.39l.51-3h11.41l-.51,3h-3.23l-1.58,9.41Z" transform="translate(-535.5 -319.69)"/><path class="cls-1" d="M609.66,402.1a6.28,6.28,0,0,1-4.32-1.54,5.26,5.26,0,0,1-1.76-4.18,7.09,7.09,0,0,1,2-5.23,6.89,6.89,0,0,1,5.13-2,6.21,6.21,0,0,1,4.5,1.6,5.28,5.28,0,0,1,1.66,4,7,7,0,0,1-2.14,5.47A7.31,7.31,0,0,1,609.66,402.1Zm.2-3c.85,0,1.43-.63,1.74-1.9a14.41,14.41,0,0,0,.46-3.19c0-1.3-.48-1.95-1.42-1.95s-1.42.65-1.74,1.95a13.92,13.92,0,0,0-.48,3.18C608.42,398.46,608.9,399.09,609.86,399.09Z" transform="translate(-535.5 -319.69)"/><path class="cls-1" d="M628.45,393.58l2.86,8.22h-4.7L625,396.58l-1.82,1.78-.57,3.44h-4.62L620,389.39h4.62l-.8,4.79,4.84-4.79h4.2Z" transform="translate(-535.5 -319.69)"/><path class="cls-1" d="M638.3,402.1a6.31,6.31,0,0,1-4.33-1.54,5.28,5.28,0,0,1-1.75-4.18,7.12,7.12,0,0,1,2-5.23,6.93,6.93,0,0,1,5.14-2,6.24,6.24,0,0,1,4.5,1.6,5.28,5.28,0,0,1,1.66,4,7,7,0,0,1-2.14,5.47A7.31,7.31,0,0,1,638.3,402.1Zm.2-3c.85,0,1.43-.63,1.74-1.9a14.32,14.32,0,0,0,.45-3.19q0-2-1.41-1.95-1.26,0-1.74,1.95a13.92,13.92,0,0,0-.48,3.18C637.06,398.46,637.54,399.09,638.5,399.09Z" transform="translate(-535.5 -319.69)"/><path class="cls-1" d="M648.41,389.63h4.39l-.33,2a4.85,4.85,0,0,1,1.68-1.89,3.92,3.92,0,0,1,1.8-.43,3.8,3.8,0,0,1,3.07,1.42,5.92,5.92,0,0,1,1.16,3.84,9.36,9.36,0,0,1-1.6,5.32,4.9,4.9,0,0,1-4.24,2.37,3.34,3.34,0,0,1-3.08-1.73l-.88,5.37h-4.69Zm3.94,4.43a28.55,28.55,0,0,0-.53,3.72,1.67,1.67,0,0,0,.33,1.07,1.15,1.15,0,0,0,1,.41,1.31,1.31,0,0,0,1.14-.61,6,6,0,0,0,.75-2.15,12.84,12.84,0,0,0,.32-2.29c0-1.21-.45-1.82-1.35-1.82S652.65,393,652.35,394.06Z" transform="translate(-535.5 -319.69)"/><path class="cls-1" d="M663.12,389.63h4.39l-.33,2a4.85,4.85,0,0,1,1.68-1.89,3.92,3.92,0,0,1,1.8-.43,3.8,3.8,0,0,1,3.07,1.42,5.92,5.92,0,0,1,1.16,3.84,9.36,9.36,0,0,1-1.6,5.32,4.9,4.9,0,0,1-4.24,2.37,3.33,3.33,0,0,1-3.08-1.73l-.88,5.37H660.4Zm3.94,4.43a28.55,28.55,0,0,0-.53,3.72,1.67,1.67,0,0,0,.33,1.07,1.15,1.15,0,0,0,.95.41,1.31,1.31,0,0,0,1.14-.61,6,6,0,0,0,.75-2.15,12.6,12.6,0,0,0,.31-2.29c0-1.21-.44-1.82-1.34-1.82S667.36,393,667.06,394.06Z" transform="translate(-535.5 -319.69)"/><path class="cls-1" d="M689.4,396.47h-8.5a6.78,6.78,0,0,0-.06.75,1.6,1.6,0,0,0,.52,1.26,1.94,1.94,0,0,0,1.31.46,2.19,2.19,0,0,0,2.13-1.57L689,398a6.6,6.6,0,0,1-2.61,2.94,7.47,7.47,0,0,1-4,1.12,6.38,6.38,0,0,1-4.47-1.57,5.53,5.53,0,0,1-1.72-4.28,7.06,7.06,0,0,1,7.33-7.15,6,6,0,0,1,4.41,1.63,5.82,5.82,0,0,1,1.64,4.34A8.46,8.46,0,0,1,689.4,396.47ZM685,394.1a4,4,0,0,0,.06-.58,1.74,1.74,0,0,0-.41-1.15,1.39,1.39,0,0,0-1.14-.49,2.05,2.05,0,0,0-1.42.59,2.7,2.7,0,0,0-.78,1.63Z" transform="translate(-535.5 -319.69)"/><path class="cls-1" d="M701.1,393.58,704,401.8h-4.69l-1.66-5.22-1.82,1.78-.58,3.44H690.6l2.07-12.41h4.62l-.8,4.79,4.84-4.79h4.19Z" transform="translate(-535.5 -319.69)"/><path class="cls-1" d="M704.52,401.8l2.08-12.41h4.78l-1.58,9.41h2.36l1.59-9.41h4.78L717,398.8h1.78l-1,5.85h-2.82l.06-2.85Z" transform="translate(-535.5 -319.69)"/><path class="cls-1" d="M724.15,400.73,724,401.8h-4.79l2.08-12.41H726l-.64,3.8c-.13.81-.36,1.88-.69,3.23.75-1.22,1.38-2.19,1.89-2.93l1.93-2.78.22-1.32h4.79l-2.07,12.41h-4.79l.59-3.53c.16-.94.39-2,.7-3.24-.74,1.21-1.37,2.18-1.89,2.92Z" transform="translate(-535.5 -319.69)"/><path class="cls-1" d="M740.44,401.8l.79-4.67h-1.6L737,401.8h-4.12l3.43-5.57a2.84,2.84,0,0,1-1.53-2.74,4,4,0,0,1,1.16-2.9,4.34,4.34,0,0,1,3.3-1.2h8l-2.08,12.41Zm1.4-7.38.4-2.37h-1.72c-.89,0-1.33.51-1.33,1.53q0,.84.93.84Z" transform="translate(-535.5 -319.69)"/><path class="cls-1" d="M586,415.14h4.11l-.69,4.14a6.88,6.88,0,0,1,4,1.71,5,5,0,0,1,1.49,3.82,7.19,7.19,0,0,1-1.93,5.12,7.81,7.81,0,0,1-5.68,2.17l-.67,4H582.5l.68-4.09a6.27,6.27,0,0,1-4-1.57,5,5,0,0,1-1.44-3.8,7.12,7.12,0,0,1,2-5.19,8.19,8.19,0,0,1,5.63-2.28Zm-1,6.3a3.92,3.92,0,0,0-2.12,1.82,6,6,0,0,0-.77,3.05,3.36,3.36,0,0,0,1.55,3.1Zm2.73,8.22c1.92-.8,2.87-2.38,2.87-4.74a3.43,3.43,0,0,0-1.54-3.19Z" transform="translate(-535.5 -319.69)"/><path class="cls-1" d="M602.21,432.1a6.31,6.31,0,0,1-4.33-1.54,5.28,5.28,0,0,1-1.75-4.18,7.12,7.12,0,0,1,2-5.23,6.93,6.93,0,0,1,5.14-2,6.24,6.24,0,0,1,4.5,1.6,5.28,5.28,0,0,1,1.66,4,7,7,0,0,1-2.14,5.47A7.31,7.31,0,0,1,602.21,432.1Zm.2-3c.85,0,1.43-.63,1.74-1.9a14.32,14.32,0,0,0,.45-3.19q0-2-1.41-1.95T601.45,424a13.92,13.92,0,0,0-.48,3.18C601,428.46,601.45,429.09,602.41,429.09Z" transform="translate(-535.5 -319.69)"/><path class="cls-1" d="M612,431.8l1.58-9.41h-3.39l.5-3h11.42l-.51,3h-3.23l-1.58,9.41Z" transform="translate(-535.5 -319.69)"/><path class="cls-1" d="M627.66,432.1a6.31,6.31,0,0,1-4.33-1.54,5.28,5.28,0,0,1-1.75-4.18,7.09,7.09,0,0,1,2-5.23,6.89,6.89,0,0,1,5.13-2,6.21,6.21,0,0,1,4.5,1.6,5.28,5.28,0,0,1,1.66,4,7,7,0,0,1-2.14,5.47A7.31,7.31,0,0,1,627.66,432.1Zm.2-3c.85,0,1.43-.63,1.74-1.9a14.32,14.32,0,0,0,.45-3.19q0-2-1.41-1.95T626.9,424a13.92,13.92,0,0,0-.48,3.18C626.42,428.46,626.9,429.09,627.86,429.09Z" transform="translate(-535.5 -319.69)"/><path class="cls-1" d="M638.15,415.14h2.14l5.13,20.58h-2.16Z" transform="translate(-535.5 -319.69)"/><path class="cls-1" d="M646.38,431.8l2.07-12.41h7.13q3.95,0,3.94,2.86t-3.39,3.1a5.12,5.12,0,0,1,2.44,1,2.24,2.24,0,0,1,.7,1.72,3.32,3.32,0,0,1-1.3,2.76,6.39,6.39,0,0,1-3.94,1Zm5.08-2.69h1.62a1.54,1.54,0,0,0,1.74-1.74.89.89,0,0,0-.37-.85,2.53,2.53,0,0,0-1.24-.22h-1.28Zm.79-4.69h1.61a1.23,1.23,0,0,0,1.41-1.37,1.12,1.12,0,0,0-.25-.82,1.34,1.34,0,0,0-.91-.24h-1.45Z" transform="translate(-535.5 -319.69)"/><path class="cls-1" d="M665.42,430.73l-.18,1.07h-4.79l2.08-12.41h4.78l-.63,3.8c-.14.81-.36,1.88-.69,3.23.75-1.22,1.38-2.19,1.88-2.93l1.94-2.78.22-1.32h4.79l-2.07,12.41H668l.59-3.53c.15-.94.39-2,.7-3.24-.74,1.21-1.37,2.18-1.89,2.92Z" transform="translate(-535.5 -319.69)"/><path class="cls-1" d="M675.49,428.87l4.19-9.4H686l.69,9.4h1.15l-1,5.77H684l.06-2.84h-6.94l-.9,2.84h-2.88l1-5.77Zm3.34,0h3.1v-6.48h-.47Z" transform="translate(-535.5 -319.69)"/><path class="cls-1" d="M702,426.47h-8.5a6.78,6.78,0,0,0-.06.75,1.57,1.57,0,0,0,.52,1.26,1.92,1.92,0,0,0,1.31.46,2.19,2.19,0,0,0,2.13-1.57l4.15.67A6.6,6.6,0,0,1,699,431a7.47,7.47,0,0,1-4,1.12,6.38,6.38,0,0,1-4.47-1.57,5.5,5.5,0,0,1-1.72-4.28,7.06,7.06,0,0,1,7.33-7.15,6,6,0,0,1,4.41,1.63,5.86,5.86,0,0,1,1.64,4.34A8.46,8.46,0,0,1,702,426.47Zm-4.45-2.37a4.38,4.38,0,0,0,.07-.58,1.74,1.74,0,0,0-.41-1.15,1.42,1.42,0,0,0-1.15-.49,2,2,0,0,0-1.41.59,2.7,2.7,0,0,0-.78,1.63Z" transform="translate(-535.5 -319.69)"/><path class="cls-1" d="M709.5,432.1a6.31,6.31,0,0,1-4.33-1.54,5.25,5.25,0,0,1-1.75-4.18,7.12,7.12,0,0,1,2-5.23,6.93,6.93,0,0,1,5.13-2,6.21,6.21,0,0,1,4.5,1.6,5.29,5.29,0,0,1,1.67,4,7,7,0,0,1-2.14,5.47A7.31,7.31,0,0,1,709.5,432.1Zm.19-3c.86,0,1.44-.63,1.74-1.9a13.84,13.84,0,0,0,.46-3.19c0-1.3-.47-1.95-1.42-1.95s-1.41.65-1.73,1.95a13.48,13.48,0,0,0-.49,3.18C708.25,428.46,708.73,429.09,709.69,429.09Z" transform="translate(-535.5 -319.69)"/><polyline class="cls-3" points="609.85 251.56 651.89 277.41 852.5 279.56"/><circle class="cls-3" cx="609.85" cy="251.56" r="10.77"/><circle class="cls-3" cx="609.85" cy="251.56" r="6.15"/><path class="cls-1" d="M1246.16,583.78l-1.44,8.56h-6.78l3.9-23.32h7.71a23.23,23.23,0,0,1,4,.23,6.92,6.92,0,0,1,2.57,1.11,6.32,6.32,0,0,1,2.1,2.36,6.67,6.67,0,0,1,.78,3.17,7.63,7.63,0,0,1-8.25,7.89Zm.83-5h1.61q3.68,0,3.68-2.48c0-1.49-1-2.23-3.08-2.23h-1.41Z" transform="translate(-535.5 -319.69)"/><path class="cls-1" d="M1277.57,584.88h-11.89a9.19,9.19,0,0,0-.09,1,2.2,2.2,0,0,0,.73,1.77,2.66,2.66,0,0,0,1.84.64,3,3,0,0,0,3-2.19l5.81.94a9.2,9.2,0,0,1-3.65,4.11,10.4,10.4,0,0,1-5.59,1.56,8.94,8.94,0,0,1-6.27-2.19,7.72,7.72,0,0,1-2.4-6,9.9,9.9,0,0,1,10.25-10,8.39,8.39,0,0,1,6.18,2.29,8.15,8.15,0,0,1,2.3,6.07A11.51,11.51,0,0,1,1277.57,584.88Zm-6.22-3.32a5.26,5.26,0,0,0,.09-.82,2.46,2.46,0,0,0-.57-1.61,2,2,0,0,0-1.6-.68,2.84,2.84,0,0,0-2,.83,3.68,3.68,0,0,0-1.1,2.28Z" transform="translate(-535.5 -319.69)"/><path class="cls-1" d="M1281.37,592.34l2.2-13.17h-4.73l.7-4.21h16l-.72,4.21h-4.52l-2.21,13.17Z" transform="translate(-535.5 -319.69)"/><path class="cls-1" d="M1313.34,575l-8.24,17.5q-1.81,3.84-3.72,4.89a9.36,9.36,0,0,1-4.53,1,13.08,13.08,0,0,1-2.73-.29v-4.63c1.45.15,2.54.22,3.25.22,1.77,0,2.65-.47,2.65-1.42a5.35,5.35,0,0,0-.2-1.13L1295.65,575h6.88L1304,582a22.14,22.14,0,0,1,.43,2.22q.16-.32.39-.87a10.25,10.25,0,0,1,.43-1l3.42-7.3Z" transform="translate(-535.5 -319.69)"/><path class="cls-1" d="M1312.57,592.34l2.91-17.38h6.69L1320,588.14h3.3l2.22-13.18h6.67l-2.2,13.18h3.3l2.2-13.18h6.71l-2.91,17.38Z" transform="translate(-535.5 -319.69)"/><path class="cls-1" d="M1342.87,592.34l2.91-17.38h6.7l-1,6h2.5q6.65,0,6.64,5.06a7,7,0,0,1-1,3.59,4.75,4.75,0,0,1-3.05,2.22,15.4,15.4,0,0,1-3.84.54Zm7.13-3.87h2.26a2,2,0,0,0,2.32-2.26,1.51,1.51,0,0,0-.44-1.19,3.25,3.25,0,0,0-1.93-.38h-1.56Z" transform="translate(-535.5 -319.69)"/><circle class="cls-3" cx="523.89" cy="120.12" r="7.5"/><circle class="cls-3" cx="523.89" cy="120.12" r="4.28"/><polyline class="cls-3" points="523.5 120.81 565.5 92.81 740.5 92.81"/><path class="cls-1" d="M1136.35,330.29l4.46.58a9.47,9.47,0,0,1-2.68,4.48,6.8,6.8,0,0,1-4.79,1.74,6.25,6.25,0,0,1-5-2.13,8,8,0,0,1-1.85-5.47,10.92,10.92,0,0,1,2.28-6.83,7.47,7.47,0,0,1,6.27-3,6.4,6.4,0,0,1,4.71,1.78,6.48,6.48,0,0,1,1.84,4.71l-4.7.34a4.77,4.77,0,0,0-.48-2.29,1.63,1.63,0,0,0-1.53-.76c-1.23,0-2.08.92-2.53,2.75a19.38,19.38,0,0,0-.68,4.32c0,1.71.67,2.56,2,2.56a2,2,0,0,0,1.59-.66A5.49,5.49,0,0,0,1136.35,330.29Z" transform="translate(-535.5 -319.69)"/><path class="cls-1" d="M1148,337a6.35,6.35,0,0,1-4.33-1.53,5.25,5.25,0,0,1-1.75-4.18,7.16,7.16,0,0,1,2-5.24,7,7,0,0,1,5.13-2.05,6.21,6.21,0,0,1,4.5,1.61,5.29,5.29,0,0,1,1.67,4,7.05,7.05,0,0,1-2.14,5.47A7.3,7.3,0,0,1,1148,337Zm.19-3c.86,0,1.44-.64,1.74-1.9a13.91,13.91,0,0,0,.46-3.19q0-1.95-1.41-1.95c-.84,0-1.42.64-1.74,1.94a13.48,13.48,0,0,0-.49,3.18Q1146.73,334,1148.17,334Z" transform="translate(-535.5 -319.69)"/><path class="cls-1" d="M1160.22,331.62l.44-2.34h.43q2,0,2-1.47,0-1-1-1a1.54,1.54,0,0,0-1.51,1.25l-4.21-.62q1.25-3.49,6.28-3.5a7.27,7.27,0,0,1,4.11.9,2.78,2.78,0,0,1,1.26,2.37,2.57,2.57,0,0,1-.57,1.7,4.44,4.44,0,0,1-2.14,1.17c1.65.44,2.48,1.36,2.48,2.77a3.72,3.72,0,0,1-1.53,3c-1,.82-2.69,1.24-5,1.24a9.1,9.1,0,0,1-3.14-.4,3.94,3.94,0,0,1-2.55-3.23l4.37-.61c0,1,.48,1.48,1.31,1.48s1.41-.53,1.41-1.59a.87.87,0,0,0-.47-.9A5.33,5.33,0,0,0,1160.22,331.62Z" transform="translate(-535.5 -319.69)"/><path class="cls-1" d="M1168.93,333.81l4.19-9.4h6.33l.68,9.4h1.16l-1,5.76h-2.88l.06-2.83h-7l-.89,2.83h-2.88l1-5.76Zm3.34,0h3.1v-6.48h-.48Z" transform="translate(-535.5 -319.69)"/><path class="cls-1" d="M1194.54,336.69h-4.83c0-.24,0-.43,0-.57a14,14,0,0,1,.09-1.47,4.54,4.54,0,0,1-4,2.32,4,4,0,0,1-2.84-1,3.31,3.31,0,0,1-1.09-2.54,3.79,3.79,0,0,1,.59-2.08,4.16,4.16,0,0,1,1.65-1.51,7.33,7.33,0,0,1,2.2-.74c.75-.12,2.21-.28,4.39-.48a2.51,2.51,0,0,0,.16-.71c0-.67-.48-1-1.42-1a2.16,2.16,0,0,0-2,1.38l-4-.82q1.53-3.43,6.72-3.43a7.89,7.89,0,0,1,4.12.91,3,3,0,0,1,1.5,2.68,55.8,55.8,0,0,1-.88,5.61,16.85,16.85,0,0,0-.33,2.38A5.83,5.83,0,0,0,1194.54,336.69Zm-4.35-5.86c-2.24.17-3.36.89-3.36,2.15,0,.69.37,1,1.09,1a2.09,2.09,0,0,0,1.39-.63A4,4,0,0,0,1190.19,330.83Z" transform="translate(-535.5 -319.69)"/><path class="cls-1" d="M1196.7,336.74l2.07-12.42h4.79l-.74,4.46h2.38l.74-4.46h4.79l-2.07,12.42h-4.79l.85-5.09h-2.38l-.85,5.09Z" transform="translate(-535.5 -319.69)"/><path class="cls-1" d="M1216.2,335.67l-.19,1.07h-4.79l2.08-12.42h4.79l-.64,3.8q-.2,1.22-.69,3.24c.75-1.22,1.38-2.2,1.89-2.93l1.93-2.79.22-1.32h4.79l-2.07,12.42h-4.79l.59-3.54c.16-.93.39-2,.7-3.24-.74,1.21-1.37,2.19-1.89,2.93Z" transform="translate(-535.5 -319.69)"/><path class="cls-1" d="M1239.65,331.4h-8.49a7.15,7.15,0,0,0-.06.75,1.6,1.6,0,0,0,.52,1.27,1.91,1.91,0,0,0,1.31.45,2.17,2.17,0,0,0,2.12-1.56l4.15.67a6.44,6.44,0,0,1-2.6,2.93,7.43,7.43,0,0,1-4,1.12,6.38,6.38,0,0,1-4.48-1.57,5.5,5.5,0,0,1-1.71-4.27,7.06,7.06,0,0,1,7.32-7.16,6,6,0,0,1,4.42,1.64,5.84,5.84,0,0,1,1.64,4.33A8.38,8.38,0,0,1,1239.65,331.4Zm-4.44-2.36a4.14,4.14,0,0,0,.06-.59,1.76,1.76,0,0,0-.41-1.15,1.42,1.42,0,0,0-1.14-.49,2,2,0,0,0-1.42.6,2.67,2.67,0,0,0-.78,1.63Z" transform="translate(-535.5 -319.69)"/><path class="cls-1" d="M1096.06,366.69h-4.83c0-.24,0-.43,0-.57a14,14,0,0,1,.09-1.47,4.54,4.54,0,0,1-4,2.32,4,4,0,0,1-2.84-1,3.31,3.31,0,0,1-1.09-2.54,3.86,3.86,0,0,1,.58-2.08,4.26,4.26,0,0,1,1.66-1.51,7.33,7.33,0,0,1,2.2-.74c.75-.12,2.21-.28,4.39-.48a2.51,2.51,0,0,0,.16-.71c0-.67-.48-1-1.42-1a2.16,2.16,0,0,0-2,1.38l-4-.82q1.53-3.43,6.71-3.43a7.93,7.93,0,0,1,4.13.91,3,3,0,0,1,1.5,2.68,55.8,55.8,0,0,1-.88,5.61,16.85,16.85,0,0,0-.33,2.38A5.09,5.09,0,0,0,1096.06,366.69Zm-4.35-5.86c-2.24.17-3.36.89-3.36,2.15,0,.69.36,1,1.09,1a2.09,2.09,0,0,0,1.39-.63A4,4,0,0,0,1091.71,360.83Z" transform="translate(-535.5 -319.69)"/><path class="cls-1" d="M1098.22,366.74l2.07-12.42h4.79l-.74,4.46h2.38l.74-4.46h4.79l-2.07,12.42h-4.79l.85-5.09h-2.38l-.85,5.09Z" transform="translate(-535.5 -319.69)"/><path class="cls-1" d="M1117.72,365.67l-.19,1.07h-4.79l2.08-12.42h4.79l-.64,3.8q-.2,1.22-.69,3.24c.75-1.22,1.38-2.2,1.89-2.93l1.94-2.79.22-1.32h4.79L1125,366.74h-4.79l.59-3.54c.16-.93.39-2,.7-3.24-.74,1.21-1.37,2.19-1.89,2.93Z" transform="translate(-535.5 -319.69)"/><path class="cls-1" d="M1127.61,366.74l2.08-12.42h6.77l.37,9.73,3.63-9.73h6.34l-2.08,12.42h-4.34l1.6-9.57h-.22l-3.62,9.57h-4.7l-.4-9.57h-.23l-1.6,9.57Z" transform="translate(-535.5 -319.69)"/><path class="cls-1" d="M1152.25,365.67l-.18,1.07h-4.79l2.07-12.42h4.79l-.63,3.8q-.21,1.22-.69,3.24c.75-1.22,1.38-2.2,1.88-2.93l1.94-2.79.22-1.32h4.79l-2.08,12.42h-4.78l.59-3.54c.15-.93.39-2,.7-3.24-.74,1.21-1.37,2.19-1.89,2.93Z" transform="translate(-535.5 -319.69)"/><path class="cls-1" d="M1164.13,354.57h4.4l-.33,2a4.85,4.85,0,0,1,1.68-1.89,4,4,0,0,1,4.86,1,5.87,5.87,0,0,1,1.16,3.84,9.25,9.25,0,0,1-1.6,5.31,4.86,4.86,0,0,1-4.23,2.38,3.34,3.34,0,0,1-3.08-1.73l-.89,5.37h-4.69Zm3.95,4.43a26.94,26.94,0,0,0-.53,3.71,1.7,1.7,0,0,0,.33,1.08,1.16,1.16,0,0,0,.95.41,1.32,1.32,0,0,0,1.14-.61,6.13,6.13,0,0,0,.74-2.15,12.06,12.06,0,0,0,.32-2.29c0-1.22-.45-1.82-1.34-1.82S1168.38,357.89,1168.08,359Z" transform="translate(-535.5 -319.69)"/><path class="cls-1" d="M1183.29,367a6.35,6.35,0,0,1-4.33-1.53,5.25,5.25,0,0,1-1.75-4.18,7.16,7.16,0,0,1,2-5.24,7,7,0,0,1,5.13-2.05,6.21,6.21,0,0,1,4.5,1.61,5.29,5.29,0,0,1,1.67,4,7.09,7.09,0,0,1-2.14,5.47A7.31,7.31,0,0,1,1183.29,367Zm.19-3c.86,0,1.44-.64,1.74-1.9a13.91,13.91,0,0,0,.46-3.19c0-1.3-.47-1.95-1.42-1.95s-1.41.64-1.74,1.94a13.92,13.92,0,0,0-.48,3.18Q1182,364,1183.48,364Z" transform="translate(-535.5 -319.69)"/><path class="cls-1" d="M1191.4,366.74l2.08-12.42h7.13c2.63,0,3.94,1,3.94,2.86s-1.13,2.86-3.39,3.1a5.21,5.21,0,0,1,2.44,1,2.22,2.22,0,0,1,.69,1.72,3.3,3.3,0,0,1-1.29,2.75,6.38,6.38,0,0,1-3.94,1Zm5.08-2.7h1.63a1.53,1.53,0,0,0,1.74-1.73.92.92,0,0,0-.37-.86,2.66,2.66,0,0,0-1.24-.22H1197Zm.8-4.69h1.61c.94,0,1.41-.45,1.41-1.36a1.09,1.09,0,0,0-.25-.82,1.35,1.35,0,0,0-.92-.25h-1.44Z" transform="translate(-535.5 -319.69)"/><path class="cls-1" d="M1218.13,366.69h-4.83c0-.24,0-.43,0-.57a14,14,0,0,1,.09-1.47,4.54,4.54,0,0,1-4,2.32,4,4,0,0,1-2.84-1,3.31,3.31,0,0,1-1.09-2.54,3.79,3.79,0,0,1,.59-2.08,4.16,4.16,0,0,1,1.65-1.51,7.33,7.33,0,0,1,2.2-.74c.75-.12,2.21-.28,4.39-.48a2.51,2.51,0,0,0,.16-.71c0-.67-.48-1-1.42-1a2.16,2.16,0,0,0-2,1.38l-4-.82q1.53-3.43,6.71-3.43a7.93,7.93,0,0,1,4.13.91,3,3,0,0,1,1.5,2.68,55.8,55.8,0,0,1-.88,5.61,16.85,16.85,0,0,0-.33,2.38A5.09,5.09,0,0,0,1218.13,366.69Zm-4.35-5.86c-2.24.17-3.36.89-3.36,2.15,0,.69.37,1,1.09,1a2.09,2.09,0,0,0,1.39-.63A4,4,0,0,0,1213.78,360.83Z" transform="translate(-535.5 -319.69)"/><path class="cls-1" d="M1220.29,366.74l2.07-12.42h4.79l-.74,4.46h2.38l.75-4.46h4.79l-2.08,12.42h-4.79l.85-5.09h-2.38l-.85,5.09Z" transform="translate(-535.5 -319.69)"/><path class="cls-1" d="M1234.81,366.74l2.08-12.42h4.79l-.75,4.46h2.39l.74-4.46h4.79l-2.07,12.42H1242l.85-5.09h-2.39l-.85,5.09Z" transform="translate(-535.5 -319.69)"/><path class="cls-1" d="M1249.35,366.74l2.08-12.42h4.79l-.71,4.26h1.78c3.16,0,4.75,1.21,4.75,3.62a5.15,5.15,0,0,1-.69,2.56,3.38,3.38,0,0,1-2.18,1.59,11,11,0,0,1-2.75.39Zm5.09-2.77h1.61a1.45,1.45,0,0,0,1.66-1.61,1.05,1.05,0,0,0-.31-.85,2.29,2.29,0,0,0-1.38-.28h-1.11Zm15-9.6-2.07,12.33h-4.79l2.07-12.33Z" transform="translate(-535.5 -319.69)"/><path class="cls-1" d="M1283.35,354.37l-4.45,5.7,3.22,6.63H1277l-1.91-4.06-2.86,4.06h-4l5.16-6.84-2.62-5.49h5l1.49,3.05,2.21-3.05Z" transform="translate(-535.5 -319.69)"/><path class="cls-1" d="M1132.58,391.62l.44-2.34h.43c1.31,0,2-.49,2-1.47q0-1-1.05-1a1.52,1.52,0,0,0-1.5,1.25l-4.21-.62q1.23-3.49,6.28-3.5a7.21,7.21,0,0,1,4.1.9,2.77,2.77,0,0,1,1.27,2.37,2.57,2.57,0,0,1-.57,1.7,4.44,4.44,0,0,1-2.14,1.17c1.65.44,2.48,1.36,2.48,2.77a3.73,3.73,0,0,1-1.54,3c-1,.82-2.68,1.24-5,1.24a9.2,9.2,0,0,1-3.15-.4,4,4,0,0,1-1.71-1.23,4,4,0,0,1-.83-2l4.37-.61c0,1,.48,1.48,1.3,1.48s1.42-.53,1.42-1.59a.88.88,0,0,0-.47-.9A5.33,5.33,0,0,0,1132.58,391.62Z" transform="translate(-535.5 -319.69)"/><path class="cls-1" d="M1153.75,396.69h-4.83c0-.24,0-.43,0-.57a14,14,0,0,1,.09-1.47,4.54,4.54,0,0,1-4,2.32,4,4,0,0,1-2.84-1,3.31,3.31,0,0,1-1.09-2.54,3.79,3.79,0,0,1,.59-2.08,4.16,4.16,0,0,1,1.65-1.51,7.33,7.33,0,0,1,2.2-.74c.75-.12,2.21-.28,4.39-.48a2.51,2.51,0,0,0,.16-.71c0-.67-.48-1-1.42-1a2.16,2.16,0,0,0-2,1.38l-4-.82q1.53-3.43,6.72-3.43a7.89,7.89,0,0,1,4.12.91,3,3,0,0,1,1.5,2.68,55.8,55.8,0,0,1-.88,5.61,16.85,16.85,0,0,0-.33,2.38A5.83,5.83,0,0,0,1153.75,396.69Zm-4.35-5.86c-2.24.17-3.36.89-3.36,2.15,0,.69.37,1,1.09,1a2.09,2.09,0,0,0,1.39-.63A4,4,0,0,0,1149.4,390.83Z" transform="translate(-535.5 -319.69)"/><path class="cls-1" d="M1164.3,392l3.73.92a6.48,6.48,0,0,1-2.63,3.31,6.65,6.65,0,0,1-3.35.93,5.55,5.55,0,0,1-5.79-5.78,7.64,7.64,0,0,1,1.91-5.12,6.32,6.32,0,0,1,5.06-2.23,5.7,5.7,0,0,1,3.87,1.38,4.44,4.44,0,0,1,1.59,3.53l-4.19.49c0-1.34-.45-2-1.36-2s-1.32.54-1.64,1.64a10,10,0,0,0-.49,2.86c0,1.2.45,1.81,1.37,1.81S1163.91,393.11,1164.3,392Z" transform="translate(-535.5 -319.69)"/><path class="cls-1" d="M1171.17,396.74l1.57-9.41h-3.38l.5-3h11.41l-.51,3h-3.23l-1.57,9.41Z" transform="translate(-535.5 -319.69)"/><path class="cls-1" d="M1192.94,396.69h-4.82a4.67,4.67,0,0,1,0-.57,14,14,0,0,1,.09-1.47,4.54,4.54,0,0,1-4.05,2.32,4,4,0,0,1-2.85-1,3.34,3.34,0,0,1-1.08-2.54,3.86,3.86,0,0,1,.58-2.08,4.13,4.13,0,0,1,1.66-1.51,7.33,7.33,0,0,1,2.2-.74c.74-.12,2.21-.28,4.39-.48a2.43,2.43,0,0,0,.15-.71c0-.67-.47-1-1.42-1a2.17,2.17,0,0,0-2,1.38l-4-.82q1.51-3.43,6.71-3.43a7.93,7.93,0,0,1,4.13.91,3,3,0,0,1,1.5,2.68c0,.53-.3,2.4-.88,5.61a16.85,16.85,0,0,0-.33,2.38A5.74,5.74,0,0,0,1192.94,396.69Zm-4.34-5.86c-2.24.17-3.36.89-3.36,2.15a.94.94,0,0,0,1.08,1,2.07,2.07,0,0,0,1.39-.63A4,4,0,0,0,1188.6,390.83Z" transform="translate(-535.5 -319.69)"/><path class="cls-1" d="M1195.12,396.74l2.07-12.42h7.13c2.63,0,3.94,1,3.94,2.86s-1.13,2.86-3.39,3.1a5.21,5.21,0,0,1,2.44,1,2.23,2.23,0,0,1,.7,1.72,3.28,3.28,0,0,1-1.3,2.75,6.36,6.36,0,0,1-3.94,1Zm5.08-2.7h1.62a1.53,1.53,0,0,0,1.74-1.73.92.92,0,0,0-.37-.86,2.66,2.66,0,0,0-1.24-.22h-1.28Zm.79-4.69h1.61c.94,0,1.41-.45,1.41-1.36a1.09,1.09,0,0,0-.25-.82,1.34,1.34,0,0,0-.91-.25h-1.45Z" transform="translate(-535.5 -319.69)"/><path class="cls-1" d="M1215.63,397a6.32,6.32,0,0,1-4.32-1.53,5.25,5.25,0,0,1-1.75-4.18,7.12,7.12,0,0,1,2-5.24,6.93,6.93,0,0,1,5.13-2.05,6.21,6.21,0,0,1,4.5,1.61,5.29,5.29,0,0,1,1.67,4,7.06,7.06,0,0,1-2.15,5.47A7.28,7.28,0,0,1,1215.63,397Zm.2-3c.85,0,1.43-.64,1.74-1.9a13.91,13.91,0,0,0,.46-3.19c0-1.3-.47-1.95-1.42-1.95s-1.42.64-1.74,1.94a13.92,13.92,0,0,0-.48,3.18Q1214.39,394,1215.83,394Z" transform="translate(-535.5 -319.69)"/><path class="cls-1" d="M1234.42,388.52l2.86,8.22h-4.69l-1.67-5.22-1.82,1.77-.57,3.45h-4.62l2.08-12.41h4.61l-.8,4.79,4.84-4.79h4.2Z" transform="translate(-535.5 -319.69)"/><circle class="cls-3" cx="404.67" cy="323.29" r="7.5"/><circle class="cls-3" cx="404.67" cy="323.29" r="4.28"/><polyline class="cls-3" points="405.5 322.31 382.03 364.81 187.5 364.81"/><path class="cls-1" d="M735.25,667.33l3.06,9.94h-4.72l-1.81-6.61-2.42,2.71-.65,3.9h-4.46l2.67-16h4.46l-1.23,7.35a7.11,7.11,0,0,1,1.15-1.81c.52-.6,1.34-1.59,2.49-3l2.28-2.57h4.56Z" transform="translate(-535.5 -319.69)"/><path class="cls-1" d="M745.12,677.55a6.07,6.07,0,0,1-4.15-1.47,5.07,5.07,0,0,1-1.68-4,6.82,6.82,0,0,1,2-5,6.61,6.61,0,0,1,4.92-2,5.93,5.93,0,0,1,4.32,1.54,5,5,0,0,1,1.6,3.8,6.77,6.77,0,0,1-2.05,5.25A7,7,0,0,1,745.12,677.55Zm.19-2.89c.82,0,1.38-.61,1.67-1.82a13.73,13.73,0,0,0,.44-3.06c0-1.25-.46-1.88-1.36-1.88s-1.36.63-1.67,1.87a13.25,13.25,0,0,0-.46,3.05C743.93,674.05,744.39,674.66,745.31,674.66Z" transform="translate(-535.5 -319.69)"/><path class="cls-1" d="M751.16,677.27,757,665.43h3.57l3,11.84H759l-1.36-6.46-3.14,6.46Z" transform="translate(-535.5 -319.69)"/><path class="cls-1" d="M762.61,677.27l5.85-11.84H772l3,11.84h-4.62l-1.36-6.46-3.14,6.46Z" transform="translate(-535.5 -319.69)"/><path class="cls-1" d="M788,677.22h-4.63a4.27,4.27,0,0,1,0-.55,13,13,0,0,1,.09-1.41,4.38,4.38,0,0,1-3.89,2.23,3.86,3.86,0,0,1-2.73-1,3.2,3.2,0,0,1-1-2.44,3.77,3.77,0,0,1,.56-2,4,4,0,0,1,1.6-1.45,7,7,0,0,1,2.1-.71c.72-.11,2.13-.26,4.22-.46a2.21,2.21,0,0,0,.15-.68c0-.65-.45-1-1.36-1a2.07,2.07,0,0,0-2,1.32l-3.86-.78q1.47-3.3,6.45-3.3a7.65,7.65,0,0,1,4,.88A2.82,2.82,0,0,1,789,668.5c0,.51-.28,2.3-.84,5.39a16.44,16.44,0,0,0-.32,2.29A5.27,5.27,0,0,0,788,677.22Zm-4.17-5.63c-2.15.17-3.23.86-3.23,2.07q0,1,1,1a2,2,0,0,0,1.33-.6A3.77,3.77,0,0,0,783.82,671.59Z" transform="translate(-535.5 -319.69)"/><path class="cls-1" d="M805.84,670l2.91,7.3h-4.59l-1.71-5-.91.2-.8,4.75h-4.6l.8-4.75-.84-.2-3.38,5H788.5l4.92-6.19-2.92-5.72h4.41l2,4.17.5.15.73-4.32h4.59l-.73,4.32.55-.15,3.4-4.17h4.53Z" transform="translate(-535.5 -319.69)"/><path class="cls-1" d="M814.1,676.23l-.17,1h-4.6l2-11.92h4.6l-.61,3.65c-.13.77-.35,1.8-.66,3.1.72-1.17,1.32-2.11,1.8-2.81l1.87-2.67.21-1.27h4.6l-2,11.92h-4.59l.56-3.4c.15-.9.38-1.93.68-3.11-.71,1.16-1.32,2.1-1.82,2.81Z" transform="translate(-535.5 -319.69)"/><path class="cls-1" d="M825.51,665.58h4.22l-.32,1.9a4.66,4.66,0,0,1,1.61-1.81,3.66,3.66,0,0,1,1.73-.42,3.6,3.6,0,0,1,2.94,1.37,5.61,5.61,0,0,1,1.12,3.68,8.89,8.89,0,0,1-1.54,5.11,4.69,4.69,0,0,1-4.06,2.28,3.21,3.21,0,0,1-3-1.67l-.85,5.16h-4.5Zm3.79,4.26a26.81,26.81,0,0,0-.51,3.56,1.57,1.57,0,0,0,.32,1,1.09,1.09,0,0,0,.91.4,1.26,1.26,0,0,0,1.09-.59,5.73,5.73,0,0,0,.72-2.07,12.25,12.25,0,0,0,.3-2.19c0-1.17-.43-1.75-1.29-1.75S829.58,668.77,829.3,669.84Z" transform="translate(-535.5 -319.69)"/><path class="cls-1" d="M843.9,677.55a6.12,6.12,0,0,1-4.16-1.47,5.07,5.07,0,0,1-1.68-4,6.82,6.82,0,0,1,2-5,6.63,6.63,0,0,1,4.93-2,6,6,0,0,1,4.32,1.54,5,5,0,0,1,1.6,3.8,6.78,6.78,0,0,1-2.06,5.25A7,7,0,0,1,843.9,677.55Zm.19-2.89c.82,0,1.37-.61,1.67-1.82a13.73,13.73,0,0,0,.44-3.06c0-1.25-.46-1.88-1.36-1.88s-1.37.63-1.67,1.87a13.36,13.36,0,0,0-.47,3.05C842.7,674.05,843.16,674.66,844.09,674.66Z" transform="translate(-535.5 -319.69)"/><path class="cls-1" d="M851.69,677.27l2-11.92h6.85q3.78,0,3.78,2.74c0,1.75-1.08,2.74-3.26,3a5.09,5.09,0,0,1,2.35.93,2.16,2.16,0,0,1,.67,1.66,3.18,3.18,0,0,1-1.25,2.64,6.13,6.13,0,0,1-3.78,1Zm4.88-2.59h1.56A1.48,1.48,0,0,0,859.8,673a.88.88,0,0,0-.36-.82,2.45,2.45,0,0,0-1.19-.21H857Zm.76-4.5h1.55a1.18,1.18,0,0,0,1.35-1.32,1.06,1.06,0,0,0-.24-.78,1.25,1.25,0,0,0-.88-.24h-1.39Z" transform="translate(-535.5 -319.69)"/><path class="cls-1" d="M877.34,677.22h-4.63c0-.23,0-.41,0-.55a12.73,12.73,0,0,1,.08-1.41,4.38,4.38,0,0,1-3.89,2.23,3.89,3.89,0,0,1-2.73-1,3.23,3.23,0,0,1-1-2.44,3.77,3.77,0,0,1,.56-2,4,4,0,0,1,1.59-1.45,7,7,0,0,1,2.11-.71c.72-.11,2.12-.26,4.22-.46a2.47,2.47,0,0,0,.14-.68c0-.65-.45-1-1.36-1a2.08,2.08,0,0,0-2,1.32l-3.85-.78c1-2.2,3.12-3.3,6.44-3.3a7.71,7.71,0,0,1,4,.88,2.82,2.82,0,0,1,1.44,2.57,53.54,53.54,0,0,1-.85,5.39,15.89,15.89,0,0,0-.31,2.29A6,6,0,0,0,877.34,677.22Zm-4.16-5.63c-2.16.17-3.23.86-3.23,2.07,0,.66.35,1,1,1a2,2,0,0,0,1.34-.6A3.89,3.89,0,0,0,873.18,671.59Z" transform="translate(-535.5 -319.69)"/><path class="cls-1" d="M879.42,677.27l2-11.92H886l-.72,4.28h2.29l.72-4.28h4.59l-2,11.92h-4.6l.82-4.89h-2.29l-.81,4.89Z" transform="translate(-535.5 -319.69)"/><path class="cls-1" d="M898.14,676.23l-.18,1h-4.6l2-11.92H900l-.61,3.65c-.13.77-.35,1.8-.66,3.1.72-1.17,1.33-2.11,1.81-2.81l1.86-2.67.21-1.27h4.6l-2,11.92h-4.6l.57-3.4c.15-.9.37-1.93.67-3.11-.71,1.16-1.31,2.1-1.81,2.81Z" transform="translate(-535.5 -319.69)"/><path class="cls-1" d="M920.66,672.14H912.5a6.74,6.74,0,0,0-.06.72,1.55,1.55,0,0,0,.5,1.22,1.84,1.84,0,0,0,1.26.43,2.09,2.09,0,0,0,2-1.5l4,.65a6.26,6.26,0,0,1-2.5,2.81,7.09,7.09,0,0,1-3.84,1.08,6.14,6.14,0,0,1-4.29-1.51,5.28,5.28,0,0,1-1.65-4.11,6.79,6.79,0,0,1,7-6.86,5.76,5.76,0,0,1,4.24,1.56,5.64,5.64,0,0,1,1.58,4.17A8.73,8.73,0,0,1,920.66,672.14Zm-4.27-2.27a3.69,3.69,0,0,0,.06-.56,1.66,1.66,0,0,0-.39-1.1,1.35,1.35,0,0,0-1.1-.47,2,2,0,0,0-1.36.57,2.62,2.62,0,0,0-.75,1.56Z" transform="translate(-535.5 -319.69)"/></svg>